<?xml version="1.0" encoding="UTF-8" standalone="no"?>
<!-- Created with Inkscape (http://www.inkscape.org/) -->

<svg
   xmlns:dc="http://purl.org/dc/elements/1.1/"
   xmlns:cc="http://creativecommons.org/ns#"
   xmlns:rdf="http://www.w3.org/1999/02/22-rdf-syntax-ns#"
   xmlns:svg="http://www.w3.org/2000/svg"
   xmlns="http://www.w3.org/2000/svg"
   xmlns:sodipodi="http://sodipodi.sourceforge.net/DTD/sodipodi-0.dtd"
   xmlns:inkscape="http://www.inkscape.org/namespaces/inkscape"
   width="744.09448819"
   height="1052.3622047"
   id="svg2"
   version="1.1"
   inkscape:version="0.48.5 r10040"
   sodipodi:docname="stage-gameover.svg"
   inkscape:export-filename="/home/anders/dev/cake/app/play/img/start.png"
   inkscape:export-xdpi="90.150002"
   inkscape:export-ydpi="90.150002">
  <defs
     id="defs4" />
  <sodipodi:namedview
     id="base"
     pagecolor="#ffffff"
     bordercolor="#666666"
     borderopacity="1.0"
     inkscape:pageopacity="0.0"
     inkscape:pageshadow="2"
     inkscape:zoom="1.1140004"
     inkscape:cx="410.35882"
     inkscape:cy="523.65377"
     inkscape:document-units="px"
     inkscape:current-layer="layer1"
     showgrid="false"
     showguides="true"
     inkscape:guide-bbox="true"
     inkscape:window-width="1600"
     inkscape:window-height="834"
     inkscape:window-x="0"
     inkscape:window-y="27"
     inkscape:window-maximized="1" />
  <metadata
     id="metadata7">
    <rdf:RDF>
      <cc:Work
         rdf:about="">
        <dc:format>image/svg+xml</dc:format>
        <dc:type
           rdf:resource="http://purl.org/dc/dcmitype/StillImage" />
        <dc:title></dc:title>
      </cc:Work>
    </rdf:RDF>
  </metadata>
  <g
     inkscape:label="Layer 1"
     inkscape:groupmode="layer"
     id="layer1">
    <rect
       style="fill:#ffffff;fill-opacity:0.75294119;stroke:none"
       id="rect6023"
       width="637.62531"
       height="473.97278"
       x="60.550556"
       y="278.89096" />
    <g
       id="g4158"
       transform="translate(623.82276,-20.505861)">
      <path
         sodipodi:nodetypes="cccczczc"
         inkscape:connector-curvature="0"
         id="path3852-7"
         d="m 10.620878,368.57247 0,-67.68042 -502.318508,0 0,67.68042 c 0,0 16.78982,12.97206 80.43675,10.08083 63.64693,-2.89123 171.30411,-54.21957 171.30411,-54.21957 0,0 96.65866,49.21869 160.992005,53.06308 64.333343,3.84439 89.585643,-8.92434 89.585643,-8.92434 z"
         style="fill:#0017ff;fill-opacity:1;stroke:#e1c200;stroke-width:3.66465211;stroke-linecap:round;stroke-linejoin:miter;stroke-miterlimit:4;stroke-opacity:1;stroke-dasharray:none" />
      <path
         sodipodi:nodetypes="cc"
         inkscape:connector-curvature="0"
         id="path3953-1"
         d="m -487.82984,313.01757 c 52.21013,27.94775 179.9528,1.43841 179.9528,1.43841"
         style="fill:none;stroke:#e1c200;stroke-width:3.66465211;stroke-linecap:round;stroke-linejoin:miter;stroke-miterlimit:4;stroke-opacity:1;stroke-dasharray:none" />
      <path
         sodipodi:nodetypes="cc"
         inkscape:connector-curvature="0"
         id="path3955-9"
         d="m -489.59671,334.15955 c 57.23775,27.30292 169.55875,-6.53 169.55875,-6.53"
         style="fill:none;stroke:#e1c200;stroke-width:3.66465211;stroke-linecap:round;stroke-linejoin:miter;stroke-miterlimit:4;stroke-opacity:1;stroke-dasharray:none" />
      <path
         sodipodi:nodetypes="cc"
         inkscape:connector-curvature="0"
         id="path3957-9"
         d="m -490.80136,351.81765 c 58.41029,30.51266 161.01729,-9.34915 161.01729,-9.34915"
         style="fill:none;stroke:#e1c200;stroke-width:3.66465211;stroke-linecap:round;stroke-linejoin:miter;stroke-miterlimit:4;stroke-opacity:1;stroke-dasharray:none" />
      <path
         sodipodi:nodetypes="cc"
         inkscape:connector-curvature="0"
         id="path3953-1-7"
         d="M -1.1851371,313.65732 C -53.395267,341.60507 -181.13794,315.09573 -181.13794,315.09573"
         style="fill:none;stroke:#e1c200;stroke-width:3.66465211;stroke-linecap:round;stroke-linejoin:miter;stroke-miterlimit:4;stroke-opacity:1;stroke-dasharray:none" />
      <path
         sodipodi:nodetypes="cc"
         inkscape:connector-curvature="0"
         id="path3955-9-6"
         d="M 0.58173286,334.7993 C -56.656017,362.10222 -168.97702,328.2693 -168.97702,328.2693"
         style="fill:none;stroke:#e1c200;stroke-width:3.66465211;stroke-linecap:round;stroke-linejoin:miter;stroke-miterlimit:4;stroke-opacity:1;stroke-dasharray:none" />
      <path
         sodipodi:nodetypes="cc"
         inkscape:connector-curvature="0"
         id="path3957-9-8"
         d="M 1.7863829,352.4574 C -56.623907,382.97006 -159.23091,343.10825 -159.23091,343.10825"
         style="fill:none;stroke:#e1c200;stroke-width:3.66465211;stroke-linecap:round;stroke-linejoin:miter;stroke-miterlimit:4;stroke-opacity:1;stroke-dasharray:none" />
    </g>
    <g
       id="g4151"
       transform="translate(623.82276,-21.077149)">
      <path
         sodipodi:nodetypes="cczccczccczcccczccc"
         inkscape:connector-curvature="0"
         id="path3951-6-3"
         d="m -297.12029,315.83736 0,16.14118 c 0,0 -6.38783,4.38422 -6.5678,10.90549 -0.17997,6.52126 6.5678,10.87128 6.5678,10.87128 7.56965,1.7811 9.42103,8.09516 9.42103,8.09516 l 14.24878,0 c 0,0 11.22751,14.02612 28.49753,14.02612 17.27001,0 29.94468,-14.02612 29.94468,-14.02612 l 13.13556,0 c 0,0 3.00562,-6.98197 10.57528,-8.09516 0,0 8.01492,-3.35865 8.01492,-10.87128 0,-7.51264 -8.01492,-10.90549 -8.01492,-10.90549 l 0,-15.25063 c -6.90175,-0.44528 -10.57528,-5.12065 -10.57528,-5.12065 l -13.13556,-0.22264 c 0,0 -10.854,-14.70543 -29.94468,-14.69404 -19.09069,0.0114 -28.49753,14.02613 -28.49753,14.02613 l -14.24878,0.89055 c 0,0 -2.96456,4.45274 -9.42103,4.2301 z"
         style="fill:#0017ff;fill-opacity:1;stroke:#e1c200;stroke-width:3.39994311;stroke-linecap:round;stroke-linejoin:miter;stroke-miterlimit:4;stroke-opacity:1;stroke-dasharray:none" />
      <path
         sodipodi:nodetypes="cczccczccczcccczccc"
         inkscape:connector-curvature="0"
         id="path3951-6"
         d="m -291.41874,320.07636 0,14.24246 c 0,0 -5.63641,2.10376 -5.79521,7.85791 -0.1588,5.75415 5.79521,8.84015 5.79521,8.84015 6.67922,1.57158 9.52771,6.1881 9.52771,6.1881 l 12.57266,0 c 0,0 9.9068,12.3762 25.1453,12.3762 15.2385,0 26.42222,-12.3762 26.42222,-12.3762 l 11.5904,0 c 0,0 2.65206,-5.20586 9.33128,-6.1881 0,0 7.07211,-2.21124 7.07211,-8.84015 0,-6.62891 -7.07211,-7.85791 -7.07211,-7.85791 l 0,-13.45667 c -6.08988,-0.3929 -9.33128,-4.51829 -9.33128,-4.51829 l -11.5904,-0.19645 c 0,0 -9.57722,-12.9756 -26.42222,-12.96555 -16.845,0.0101 -25.1453,12.37621 -25.1453,12.37621 l -12.57266,0.78579 c 0,0 -3.83073,3.92895 -9.52771,3.7325 z"
         style="fill:none;stroke:#e1c200;stroke-width:3;stroke-linecap:round;stroke-linejoin:miter;stroke-miterlimit:4;stroke-opacity:1;stroke-dasharray:none" />
      <path
         sodipodi:nodetypes="cccccccccccccccccc"
         id="path1316"
         d="m -266.59097,322.37271 c 0.50588,-1.18473 4.29505,0.1175 2.55876,2.79375 2.73274,0.30441 2.31071,4.49087 -0.93996,3.70758 -0.0272,3.023 3.83814,2.93735 3.9948,0.33943 l 0.75718,0 c 0.0522,2.62403 3.81202,2.78069 4.07312,-0.2611 -4.46477,1.52742 -3.94257,-3.86424 -1.20105,-3.91646 -1.67102,-1.78852 0.35425,-3.52809 1.5878,-3.60152 1.27122,0.0832 2.8835,1.66287 1.54537,3.57541 4.25589,1.10966 1.24022,5.3525 -1.14883,4.0209 -0.20887,2.48043 3.75981,3.094 3.96869,0.15666 l 0.70496,0.0261 c 0.15666,2.97651 4.29505,2.25849 3.86424,-0.23499 -3.78591,0 -3.08095,-3.3551 -0.70496,-3.81202 -1.60575,-1.27938 0.46998,-4.50394 2.55876,-2.84597 0,1.48826 -1.39688,9.58228 -1.04439,14.04705 l -19.71287,0 c 0.32637,-4.21673 -0.75392,-11.64821 -0.86162,-13.99483 z"
         style="fill:#e1c200;fill-opacity:1;fill-rule:evenodd;stroke:none"
         inkscape:connector-curvature="0" />
      <path
         style="fill:#e1c200;fill-opacity:1;fill-rule:evenodd;stroke:none"
         d="m -220.38317,322.37271 c -0.50587,-1.18473 -4.29505,0.1175 -2.55876,2.79375 -2.73274,0.30441 -2.31071,4.49087 0.93996,3.70758 0.0272,3.023 -3.83814,2.93735 -3.9948,0.33943 l -0.75718,0 c -0.0522,2.62403 -3.81202,2.6765 -3.94288,-0.20901 3.78753,1.55347 4.35933,-3.91633 1.07081,-3.96855 1.67102,-1.78852 -0.22401,-3.52809 -1.5878,-3.60152 -1.27122,0.0832 -2.8835,1.66287 -1.54537,3.57541 -4.02147,1.13571 -1.24022,5.3525 1.14883,4.0209 0.20887,2.48043 -3.75981,3.094 -3.96869,0.15666 l -0.70496,0.0261 c -0.15666,2.97651 -4.29506,2.25849 -3.86424,-0.23499 3.81196,0.18233 3.0549,-3.66768 0.70496,-3.81202 1.60575,-1.27938 -0.33974,-4.3737 -2.42852,-2.84597 0,1.48826 1.26664,9.58228 0.91415,14.04705 l 19.71287,0 c -0.32637,-4.21673 0.75392,-11.64821 0.86162,-13.99483 z"
         id="path1305"
         sodipodi:nodetypes="cccccccccccccccccc"
         inkscape:connector-curvature="0" />
      <path
         sodipodi:nodetypes="cccccccccccccccccc"
         id="path1306"
         d="m -232.17971,340.51977 c -0.61572,-1.23965 -4.707,0.17242 -2.64114,2.95853 -2.92499,0.19455 -2.42057,4.95775 0.96742,3.87236 0.0272,3.023 -4.19648,3.23669 -4.16089,0.36413 l -0.75719,0 c -0.32685,2.70642 -4.06051,2.83838 -4.3216,-0.20341 4.2176,1.22532 4.27213,-4.27619 1.17358,-4.10871 1.67103,-1.78852 0.0302,-3.77525 -1.53287,-3.82122 -2.06766,0.0558 -3.02081,2.43184 -1.6003,3.79511 -3.92633,0.28577 -2.39367,5.48982 1.17629,4.15822 0.20888,2.48043 -4.02703,3.07214 -4.23591,0.13479 l -0.70496,0.0261 c -0.48622,2.97652 -4.37005,2.40896 -4.15894,-0.27676 3.42889,0.96122 3.63021,-3.9593 0.78735,-3.86695 1.68814,-1.60894 -0.49744,-4.83349 -2.64114,-3.01074 0,1.48825 1.39687,10.32264 1.04438,14.7874 l 20.7443,-0.0737 c -0.32637,-4.21672 0.75392,-12.38857 0.86162,-14.73519 z"
         style="fill:#e1c200;fill-opacity:1;fill-rule:evenodd;stroke:none"
         inkscape:connector-curvature="0" />
    </g>
    <g
       id="g4167"
       transform="matrix(1,0,0,0.993924,623.82276,-18.160698)">
      <path
         sodipodi:nodetypes="cczccccc"
         inkscape:connector-curvature="0"
         id="path3770-1"
         d="m -481.84116,300.03759 c -11.65884,143.16038 -49.81506,192.99467 -49.81506,192.99467 0,0 16.11444,17.65698 16.01192,42.77689 -0.10253,25.1199 -16.01192,43.30056 -16.01192,43.30056 0,0 28.61716,92.41998 18.01821,195.71291 l -48.75517,0 0,-474.78503 z"
         style="fill:#0017ff;fill-opacity:1;stroke:#e1c200;stroke-width:3;stroke-linecap:round;stroke-linejoin:miter;stroke-miterlimit:4;stroke-opacity:1;stroke-dasharray:none" />
      <path
         sodipodi:nodetypes="cc"
         inkscape:connector-curvature="0"
         id="path3774-9"
         d="m -528.47653,307.13492 c -1.05991,87.8896 -27.55728,181.36696 -27.55728,181.36696"
         style="fill:none;stroke:#e1c200;stroke-width:3;stroke-linecap:round;stroke-linejoin:miter;stroke-miterlimit:4;stroke-opacity:1;stroke-dasharray:none" />
      <path
         sodipodi:nodetypes="cc"
         inkscape:connector-curvature="0"
         id="path3776-3"
         d="m -500.36344,308.69888 c -13.77864,99.66861 -44.01153,179.803 -44.01153,179.803"
         style="fill:none;stroke:#e1c200;stroke-width:3;stroke-linecap:round;stroke-linejoin:miter;stroke-miterlimit:4;stroke-opacity:1;stroke-dasharray:none" />
      <path
         sodipodi:nodetypes="cc"
         inkscape:connector-curvature="0"
         id="path3778-6"
         d="m -549.67444,584.54618 c 0,0 14.83852,95.13822 3.17968,186.65214"
         style="fill:none;stroke:#e1c200;stroke-width:3;stroke-linecap:round;stroke-linejoin:miter;stroke-miterlimit:4;stroke-opacity:1;stroke-dasharray:none" />
      <path
         sodipodi:nodetypes="cc"
         inkscape:connector-curvature="0"
         id="path3780-2"
         d="m -535.89581,607.19814 c 0,0 14.83853,69.76803 6.35937,163.09409"
         style="fill:none;stroke:#e1c200;stroke-width:3;stroke-linecap:round;stroke-linejoin:miter;stroke-miterlimit:4;stroke-opacity:1;stroke-dasharray:none" />
      <path
         sodipodi:nodetypes="cc"
         inkscape:connector-curvature="0"
         id="path3782-6"
         d="m -556.31256,577.01218 c 15.05218,-2.62121 18.6308,-0.097 18.6308,-0.097"
         style="fill:none;stroke:#e1c200;stroke-width:3;stroke-linecap:round;stroke-linejoin:miter;stroke-miterlimit:4;stroke-opacity:1;stroke-dasharray:none" />
      <path
         sodipodi:nodetypes="cc"
         inkscape:connector-curvature="0"
         id="path3784-6"
         d="m -556.64637,496.03589 c 0,0 7.5361,2.09752 19.24335,0.1912"
         style="fill:none;stroke:#e1c200;stroke-width:3;stroke-linecap:round;stroke-linejoin:miter;stroke-miterlimit:4;stroke-opacity:1;stroke-dasharray:none" />
      <path
         inkscape:connector-curvature="0"
         id="path3786-4"
         d="m -552.17312,576.11037 -0.27874,-15.72723"
         style="fill:none;stroke:#e1c200;stroke-width:3;stroke-linecap:round;stroke-linejoin:miter;stroke-miterlimit:4;stroke-opacity:1;stroke-dasharray:none" />
      <path
         sodipodi:nodetypes="cc"
         inkscape:connector-curvature="0"
         id="path3788-3"
         d="m -546.87698,575.87208 c 4.45989,-6.67215 6.13237,-20.73135 6.13237,-20.73135"
         style="fill:none;stroke:#e1c200;stroke-width:3;stroke-linecap:round;stroke-linejoin:miter;stroke-miterlimit:4;stroke-opacity:1;stroke-dasharray:none" />
      <path
         sodipodi:nodetypes="cc"
         inkscape:connector-curvature="0"
         id="path3790-3"
         d="m -539.07215,575.87208 c 7.24735,-6.43388 10.87102,-25.97377 10.87102,-25.97377"
         style="fill:none;stroke:#e1c200;stroke-width:3;stroke-linecap:round;stroke-linejoin:miter;stroke-miterlimit:4;stroke-opacity:1;stroke-dasharray:none" />
      <path
         inkscape:connector-curvature="0"
         id="path3792-6"
         d="m -552.45186,497.23589 -0.27875,15.72725"
         style="fill:none;stroke:#e1c200;stroke-width:3;stroke-linecap:round;stroke-linejoin:miter;stroke-miterlimit:4;stroke-opacity:1;stroke-dasharray:none" />
      <path
         sodipodi:nodetypes="cc"
         inkscape:connector-curvature="0"
         id="path3794-8"
         d="m -547.15573,496.99761 c 3.62367,5.95728 5.57488,20.73135 5.57488,20.73135"
         style="fill:none;stroke:#e1c200;stroke-width:3;stroke-linecap:round;stroke-linejoin:miter;stroke-miterlimit:4;stroke-opacity:1;stroke-dasharray:none" />
      <path
         sodipodi:nodetypes="cc"
         inkscape:connector-curvature="0"
         id="path3796-9"
         d="m -539.3509,496.75932 c 10.31353,13.34432 10.87102,26.21206 10.87102,26.21206"
         style="fill:none;stroke:#e1c200;stroke-width:3;stroke-linecap:round;stroke-linejoin:miter;stroke-miterlimit:4;stroke-opacity:1;stroke-dasharray:none" />
    </g>
    <g
       id="g4195"
       transform="matrix(1,0,0,0.993924,623.82276,-20.375091)">
      <path
         sodipodi:nodetypes="cczccccc"
         inkscape:connector-curvature="0"
         id="path3770-1-1"
         d="m -7.05859,302.26552 c 11.65884,143.16038 49.81506,192.99467 49.81506,192.99467 0,0 -16.11444,17.65698 -16.01192,42.77689 0.10253,25.1199 16.01192,43.30056 16.01192,43.30056 0,0 -28.61716,92.41998 -18.01821,195.71291 l 48.75517,0 0,-474.78503 z"
         style="fill:#0017ff;fill-opacity:1;stroke:#e1c200;stroke-width:3;stroke-linecap:round;stroke-linejoin:miter;stroke-miterlimit:4;stroke-opacity:1;stroke-dasharray:none" />
      <path
         sodipodi:nodetypes="cc"
         inkscape:connector-curvature="0"
         id="path3774-9-5"
         d="m 39.57678,309.36285 c 1.05991,87.8896 27.55728,181.36696 27.55728,181.36696"
         style="fill:none;stroke:#e1c200;stroke-width:3;stroke-linecap:round;stroke-linejoin:miter;stroke-miterlimit:4;stroke-opacity:1;stroke-dasharray:none" />
      <path
         sodipodi:nodetypes="cc"
         inkscape:connector-curvature="0"
         id="path3776-3-6"
         d="m 11.46369,310.92681 c 13.77864,99.66861 44.01153,179.803 44.01153,179.803"
         style="fill:none;stroke:#e1c200;stroke-width:3;stroke-linecap:round;stroke-linejoin:miter;stroke-miterlimit:4;stroke-opacity:1;stroke-dasharray:none" />
      <path
         sodipodi:nodetypes="cc"
         inkscape:connector-curvature="0"
         id="path3778-6-6"
         d="m 60.77469,586.77411 c 0,0 -14.83852,95.13822 -3.17968,186.65214"
         style="fill:none;stroke:#e1c200;stroke-width:3;stroke-linecap:round;stroke-linejoin:miter;stroke-miterlimit:4;stroke-opacity:1;stroke-dasharray:none" />
      <path
         sodipodi:nodetypes="cc"
         inkscape:connector-curvature="0"
         id="path3780-2-1"
         d="m 46.99606,609.42607 c 0,0 -14.83853,69.76803 -6.35937,163.09409"
         style="fill:none;stroke:#e1c200;stroke-width:3;stroke-linecap:round;stroke-linejoin:miter;stroke-miterlimit:4;stroke-opacity:1;stroke-dasharray:none" />
      <path
         sodipodi:nodetypes="cc"
         inkscape:connector-curvature="0"
         id="path3782-6-0"
         d="m 67.41281,579.24011 c -15.05218,-2.62121 -18.6308,-0.097 -18.6308,-0.097"
         style="fill:none;stroke:#e1c200;stroke-width:3;stroke-linecap:round;stroke-linejoin:miter;stroke-miterlimit:4;stroke-opacity:1;stroke-dasharray:none" />
      <path
         sodipodi:nodetypes="cc"
         inkscape:connector-curvature="0"
         id="path3784-6-2"
         d="m 67.74662,498.26382 c 0,0 -7.5361,2.09752 -19.24335,0.1912"
         style="fill:none;stroke:#e1c200;stroke-width:3;stroke-linecap:round;stroke-linejoin:miter;stroke-miterlimit:4;stroke-opacity:1;stroke-dasharray:none" />
      <path
         inkscape:connector-curvature="0"
         id="path3786-4-3"
         d="m 63.27337,578.3383 0.27874,-15.72723"
         style="fill:none;stroke:#e1c200;stroke-width:3;stroke-linecap:round;stroke-linejoin:miter;stroke-miterlimit:4;stroke-opacity:1;stroke-dasharray:none" />
      <path
         sodipodi:nodetypes="cc"
         inkscape:connector-curvature="0"
         id="path3788-3-2"
         d="m 57.97723,578.10001 c -4.45989,-6.67215 -6.13237,-20.73135 -6.13237,-20.73135"
         style="fill:none;stroke:#e1c200;stroke-width:3;stroke-linecap:round;stroke-linejoin:miter;stroke-miterlimit:4;stroke-opacity:1;stroke-dasharray:none" />
      <path
         sodipodi:nodetypes="cc"
         inkscape:connector-curvature="0"
         id="path3790-3-3"
         d="M 50.1724,578.10001 C 42.92505,571.66613 39.30138,552.12624 39.30138,552.12624"
         style="fill:none;stroke:#e1c200;stroke-width:3;stroke-linecap:round;stroke-linejoin:miter;stroke-miterlimit:4;stroke-opacity:1;stroke-dasharray:none" />
      <path
         inkscape:connector-curvature="0"
         id="path3792-6-5"
         d="m 63.55211,499.46382 0.27875,15.72725"
         style="fill:none;stroke:#e1c200;stroke-width:3;stroke-linecap:round;stroke-linejoin:miter;stroke-miterlimit:4;stroke-opacity:1;stroke-dasharray:none" />
      <path
         sodipodi:nodetypes="cc"
         inkscape:connector-curvature="0"
         id="path3794-8-7"
         d="m 58.25598,499.22554 c -3.62367,5.95728 -5.57488,20.73135 -5.57488,20.73135"
         style="fill:none;stroke:#e1c200;stroke-width:3;stroke-linecap:round;stroke-linejoin:miter;stroke-miterlimit:4;stroke-opacity:1;stroke-dasharray:none" />
      <path
         sodipodi:nodetypes="cc"
         inkscape:connector-curvature="0"
         id="path3796-9-2"
         d="M 50.45115,498.98725 C 40.13762,512.33157 39.58013,525.19931 39.58013,525.19931"
         style="fill:none;stroke:#e1c200;stroke-width:3;stroke-linecap:round;stroke-linejoin:miter;stroke-miterlimit:4;stroke-opacity:1;stroke-dasharray:none" />
    </g>
    <text
       xml:space="preserve"
       style="font-size:40px;font-style:normal;font-weight:normal;line-height:125%;letter-spacing:0px;word-spacing:0px;fill:#000000;fill-opacity:1;stroke:none;font-family:Sans"
       x="-48.883335"
       y="536.64301"
       id="text5313"
       sodipodi:linespacing="125%"><tspan
         sodipodi:role="line"
         id="tspan5315"
         x="-48.883335"
         y="536.64301" /></text>
    <g
       id="g6013"
       transform="matrix(0.9837234,0,0,0.9837234,-36.104999,-367.72761)">
      <path
         sodipodi:nodetypes="ccczzzczcccccczccc"
         inkscape:connector-curvature="0"
         id="path5465-3"
         d="m 244.90527,835.88386 c 1.76919,0.0303 6.5519,-3.50451 6.5519,-3.50451 0.91422,-1.82844 1.82844,-9.5993 0.91422,-13.71328 0,0 -8.98982,-8.83745 -16.60831,-8.0756 -7.61849,0.76185 -12.88766,7.56755 -15.38934,14.1704 -2.50168,6.60284 -5.7894,18.65116 -7.00901,29.10262 -1.21961,10.45146 3.65687,37.63533 15.69408,36.72111 10.20877,0.60948 15.35259,-5.25138 21.78888,-17.06541 6.43629,-11.81403 3.35214,-23.76969 3.35214,-23.76969 0,0 -6.09479,-1.52369 -21.1794,-2.13317 0,0 -1.06659,9.44692 -0.76185,10.81825 l 12.79906,1.37133 c 0,0 2.13318,10.51351 -7.16138,17.52252 -3.05381,1.35725 -5.67342,1.75967 -10.51352,-1.67607 -8.5327,-6.39953 -10.37254,-13.49736 -8.22796,-25.44574 2.14458,-11.94838 6.39953,-19.96044 15.54172,-26.66471 1.21896,-0.91422 4.72346,-0.30475 4.72346,-0.30475 4.57109,6.5519 4.57109,11.27537 5.48531,12.6467 z"
         style="fill:#e1c200;fill-opacity:1;stroke:#0017ff;stroke-width:2.03309178;stroke-linecap:butt;stroke-linejoin:round;stroke-miterlimit:4;stroke-opacity:1;stroke-dasharray:none" />
      <path
         inkscape:connector-curvature="0"
         id="path5460-9"
         d="m 287.16451,816.50482 c -2.86499,0.004 -6.76658,0.33761 -7.65625,0.71875 -9.29456,17.67489 -19.19159,52.2712 -18.125,65.375 0,0 1.9522,4.77278 5.3125,4.125 3.3603,-0.64778 5.96466,-9.16359 7.03125,-11.90625 1.06659,-2.74266 3.8125,-14.15625 3.8125,-14.15625 0.76185,-1.5237 14.46875,-1.84375 14.46875,-1.84375 2.43792,0.45711 3.34375,9.3125 3.34375,9.3125 0,0 0.14052,10.20281 0.75,12.03125 0,0 1.85547,3.73478 4.28125,3.65625 2.42578,-0.0785 4.57781,-1.67891 6.40625,-6.25 1.5237,-4.72346 -0.15625,-22.84375 -0.15625,-22.84375 -2.28555,-13.1038 -12.50326,-33.39378 -16.3125,-37.8125 -0.096,-0.30931 -1.43725,-0.40895 -3.15625,-0.40625 z m -2.625,16.5625 c 0,0 4.26531,7.92073 6.09375,14.625 0,0 -8.68667,1.69998 -13.5625,-2.71875 l 3.65625,-11.75 3.8125,-0.15625 z"
         style="fill:#e1c200;fill-opacity:1;stroke:#0017ff;stroke-width:2.03309178;stroke-linecap:butt;stroke-linejoin:miter;stroke-miterlimit:4;stroke-opacity:1;stroke-dasharray:none" />
      <path
         sodipodi:nodetypes="ccccccczcczcccc"
         inkscape:connector-curvature="0"
         id="path5467-8"
         d="m 386.6361,819.16482 c -5.79005,43.57775 -6.5519,66.43322 -6.5519,66.43322 l 24.37916,-0.15237 c 0,0 0.91422,-10.0564 0.60948,-11.27536 l -12.34195,-0.76185 c -1.82844,-7.46612 2.28555,-22.39836 2.28555,-22.39836 l 14.62749,0.45711 c 0,0 1.48305,-4.84436 1.37133,-6.70427 -0.11172,-1.85991 -1.37133,-4.11398 -1.37133,-4.11398 l -12.64669,-1.5237 c 0,0 -1.42328,-2.23467 -1.5237,-3.96162 -0.10042,-1.72695 1.5237,-5.94242 1.5237,-5.94242 0,0 12.03721,-0.60947 14.01802,-1.67606 0,0 0.15237,-4.41873 -7.00901,-9.29456 z"
         style="fill:#e1c200;fill-opacity:1;stroke:#0017ff;stroke-width:2.03309178;stroke-linecap:butt;stroke-linejoin:round;stroke-miterlimit:4;stroke-opacity:1;stroke-dasharray:none" />
      <path
         sodipodi:nodetypes="scsssscsssc"
         inkscape:connector-curvature="0"
         id="path5910-2"
         d="m 441.76018,879.77286 c -11.23042,-5.73614 -16.78629,-18.10335 -13.47131,-29.98641 2.07206,-7.42724 15.715,-23.05007 20.08531,-22.99989 5.35186,0.0614 15.00853,5.58091 19.03603,10.88042 8.86759,11.66829 5.48313,33.73866 -6.41857,41.8554 -6.53993,4.46018 -10.8789,4.51668 -19.23146,0.25048 z m 14.03438,-19.18268 c 3.11585,-6.04708 2.1473,-11.83767 -2.36521,-14.1426 -3.32074,-1.69616 -4.03312,-1.50314 -7.0217,1.90288 -4.08588,4.65646 -4.62174,14.61891 -0.89877,16.70994 3.74189,2.10164 7.81078,0.33328 10.28568,-4.47022 z"
         style="fill:#e1c200;fill-opacity:1;stroke:#0017ff;stroke-width:2.03309178;stroke-miterlimit:4;stroke-opacity:0.66666667;stroke-dasharray:none" />
      <path
         sodipodi:nodetypes="sssscssssscsscs"
         inkscape:connector-curvature="0"
         id="path5910-4"
         d="m 486.09962,884.43568 c -4.73918,-11.09623 -7.44095,-22.30657 -11.40464,-47.32074 -1.637,-10.33089 -1.70192,-12.63789 -0.37922,-13.47938 2.56862,-1.63413 8.96269,-1.20633 13.3494,0.89315 l 4.06423,1.94514 1.39223,13.78236 c 1.28689,12.73952 6.67139,29.18693 9.03522,29.18693 0.53382,0 1.15691,-3.44974 3.13697,-6.89885 2.05257,-3.57542 10.11414,-23.69316 11.91886,-27.2241 3.53698,-6.9201 7.25021,-13.14956 12.6489,-12.53035 l 3.43195,0.39363 -0.31742,8.00064 c -0.76008,19.15809 -15.46569,47.82816 -28.63699,55.83069 -3.0321,1.84222 -6.40023,2.74728 -10.2393,2.75141 -5.63365,0.006 -5.75566,-0.0752 -8.00019,-5.33053 z"
         style="fill:#e1c200;fill-opacity:1;stroke:#0017ff;stroke-width:2.03309178;stroke-miterlimit:4;stroke-opacity:0.66666667;stroke-dasharray:none" />
      <path
         sodipodi:nodetypes="sssssssssssssssssssss"
         inkscape:connector-curvature="0"
         id="path5910-7"
         d="m 581.24573,890.058 c -0.68063,-1.27639 -1.23751,-4.08605 -1.23751,-6.24367 0,-2.15763 -0.6203,-9.61688 -1.37845,-16.57612 -1.11235,-10.21058 -1.05465,-14.94664 0.29887,-24.53384 2.14713,-15.20853 3.51763,-16.49537 18.40257,-17.27948 13.96201,-0.73548 19.73907,1.03659 25.76012,7.90171 3.77662,4.30605 4.73517,6.34024 4.73517,10.04867 0,5.25888 -1.79867,6.49549 -14.64435,10.06816 -8.32956,2.31663 -8.65261,3.85764 -2.50318,11.94056 4.78244,6.28612 6.67785,13.29442 5.35334,19.79403 -1.04596,5.13277 -3.61594,5.84347 -7.82135,2.16291 -2.30219,-2.01489 -3.89479,-5.56301 -5.89397,-13.13118 -2.91296,-11.02734 -6.01507,-17.08608 -8.33834,-16.28556 -0.77997,0.26875 -1.33201,2.32694 -1.22674,4.57374 0.91442,19.51763 0.90545,19.64324 -1.76954,24.78165 -2.02079,3.88177 -3.35222,5.09914 -5.57683,5.09914 -1.66568,0 -3.45443,-0.99793 -4.15981,-2.32072 z m 22.01608,-40.17059 c 11.60101,-4.86482 6.01917,-13.81235 -7.79296,-12.49189 -3.93627,0.37631 -4.11931,0.61094 -4.48387,5.74792 -0.56991,8.03028 3.66363,10.35586 12.27683,6.74397 z"
         style="fill:#e1c200;fill-opacity:1;stroke:#0017ff;stroke-width:2.03309178;stroke-miterlimit:4;stroke-opacity:0.66666667;stroke-dasharray:none" />
      <path
         sodipodi:nodetypes="ccccccczcczcccc"
         inkscape:connector-curvature="0"
         id="path5467-8-3"
         d="m 544.12887,826.52009 c -5.4636,41.63177 -6.1825,63.46662 -6.1825,63.46662 l 23.00465,-0.14556 c 0,0 0.86268,-9.60734 0.57512,-10.77186 l -11.64611,-0.72782 c -1.72535,-7.13273 2.15669,-21.39817 2.15669,-21.39817 l 13.80279,0.43671 c 0,0 1.39943,-4.62804 1.29401,-6.40489 -0.10544,-1.77686 -1.29401,-3.93027 -1.29401,-3.93027 l -11.93367,-1.45566 c 0,0 -1.34303,-2.13487 -1.43778,-3.78471 -0.0948,-1.64983 1.43778,-5.67706 1.43778,-5.67706 0,0 11.35854,-0.58225 13.22768,-1.60121 0,0 0.14377,-4.22141 -6.61383,-8.87951 z"
         style="fill:#e1c200;fill-opacity:1;stroke:#0017ff;stroke-width:2.03309178;stroke-linecap:butt;stroke-linejoin:round;stroke-miterlimit:4;stroke-opacity:0.66666667;stroke-dasharray:none" />
      <path
         sodipodi:nodetypes="ccccscsccccc"
         inkscape:connector-curvature="0"
         id="path5469-5"
         d="m 317.01519,821.10836 c 0.45711,15.38935 -5.79005,68.41402 -5.79005,68.41402 0,0 10.66589,0.4571 15.54172,-8.9898 1.21896,-3.0474 -1.82845,-22.32242 1.37132,-32.53119 5.71623,6.78424 5.50548,12.7479 11.4889,12.44157 5.98341,-0.30634 18.161,-6.88268 18.161,-6.88268 0.91422,18.13196 -5.89098,39.413 -3.58709,39.0854 8.30238,-1.1804 12.2627,-23.38894 12.2627,-23.38894 1.82606,-7.22738 5.03293,-67.43381 -4.80037,-55.0838 -3.42381,11.27631 -18.51695,31.23532 -18.51695,31.23532 -5.94242,2.89503 -11.50368,-12.11032 -15.9224,-23.99516 -5.64005,-2.59171 -9.14219,-0.76185 -10.20878,-0.30474 z"
         style="fill:#e1c200;fill-opacity:1;stroke:#0017ff;stroke-width:2.03309178;stroke-linecap:butt;stroke-linejoin:miter;stroke-miterlimit:4;stroke-opacity:1;stroke-dasharray:none" />
    </g>
  </g>
</svg>
